<svg xmlns="http://www.w3.org/2000/svg" viewBox="0 0 200 231"><defs><linearGradient id="g-d-forest" x1="0.08" y1="0" x2="0.9" y2="1"><stop offset="0" stop-color="#49916b"></stop><stop offset="0.55" stop-color="#35855a"></stop><stop offset="1" stop-color="#2e744e"></stop></linearGradient><clipPath id="plateclip"><polygon points="100,16.7 185.5,66.1 185.5,164.9 100,214.3 14.5,164.9 14.5,66.1"></polygon></clipPath></defs><polygon points="100,0 200,58 200,173 100,231 0,173 0,58" fill="#113c25"></polygon><polygon points="100,4 197,60 197,171 100,227 4,171 4,60" fill="#215f3b"></polygon><polygon points="100,17 186,66 186,165 100,214 15,165 15,66" fill="url(#g-d-forest)"></polygon><g clip-path="url(#plateclip)"><polygon points="30,54 96,40 152,64 166,122 116,174 52,164 26,110" fill="#479069" opacity="0.45"></polygon><path d="M21,44 Q81,125 171,206" fill="none" stroke="#466957" stroke-width="12" stroke-linecap="round" opacity="0.32"></path><polygon points="111,90 115,84 121,82 127,84 130,90" fill="#113b25"></polygon><polygon points="46,116 49,111 54,109 59,111 63,116" fill="#113b25"></polygon><polygon points="92,165 96,159 101,157 107,159 110,165" fill="#113b25"></polygon><polygon points="23,70 27,70 27,65 23,65" fill="#7a5a3a"></polygon><polygon points="16,66 34,66 25,52" fill="#113b25"></polygon><polygon points="16,66 25,66 25,52" fill="#50715f"></polygon><polygon points="19,58 31,58 25,45" fill="#113b25"></polygon><polygon points="19,58 25,58 25,45" fill="#50715f"></polygon><polygon points="63,70 67,70 67,64 63,64" fill="#7a5a3a"></polygon><polygon points="54,66 76,66 65,48" fill="#113b25"></polygon><polygon points="54,66 65,66 65,48" fill="#50715f"></polygon><polygon points="57,56 73,56 65,39" fill="#113b25"></polygon><polygon points="57,56 65,56 65,39" fill="#50715f"></polygon><polygon points="49,71 54,71 54,63 49,63" fill="#7a5a3a"></polygon><polygon points="38,66 65,66 52,44" fill="#113b25"></polygon><polygon points="38,66 52,66 52,44" fill="#50715f"></polygon><polygon points="42,54 61,54 52,34" fill="#113b25"></polygon><polygon points="42,54 52,54 52,34" fill="#50715f"></polygon><polygon points="45,44 58,44 52,26" fill="#113b25"></polygon><polygon points="45,44 52,44 52,26" fill="#50715f"></polygon><polygon points="131,80 134,80 134,74 131,74" fill="#7a5a3a"></polygon><polygon points="123,76 142,76 133,61" fill="#113b25"></polygon><polygon points="123,76 133,76 133,61" fill="#50715f"></polygon><polygon points="126,68 139,68 133,53" fill="#113b25"></polygon><polygon points="126,68 133,68 133,53" fill="#50715f"></polygon><polygon points="175,83 178,83 178,78 175,78" fill="#7a5a3a"></polygon><polygon points="168,79 185,79 177,65" fill="#113b25"></polygon><polygon points="168,79 177,79 177,65" fill="#50715f"></polygon><polygon points="170,71 183,71 177,58" fill="#113b25"></polygon><polygon points="170,71 177,71 177,58" fill="#50715f"></polygon><polygon points="153,93 157,93 157,87 153,87" fill="#7a5a3a"></polygon><polygon points="145,89 166,89 155,72" fill="#113b25"></polygon><polygon points="145,89 155,89 155,72" fill="#50715f"></polygon><polygon points="148,80 163,80 155,64" fill="#113b25"></polygon><polygon points="148,80 155,80 155,64" fill="#50715f"></polygon><polygon points="70,164 74,164 74,158 70,158" fill="#7a5a3a"></polygon><polygon points="62,160 83,160 72,143" fill="#113b25"></polygon><polygon points="62,160 72,160 72,143" fill="#50715f"></polygon><polygon points="65,151 80,151 72,135" fill="#113b25"></polygon><polygon points="65,151 72,151 72,135" fill="#50715f"></polygon><polygon points="100,169 105,169 105,162 100,162" fill="#7a5a3a"></polygon><polygon points="91,164 114,164 103,146" fill="#113b25"></polygon><polygon points="91,164 103,164 103,146" fill="#50715f"></polygon><polygon points="94,154 111,154 103,136" fill="#113b25"></polygon><polygon points="94,154 103,154 103,136" fill="#50715f"></polygon><polygon points="112,174 117,174 117,166 112,166" fill="#7a5a3a"></polygon><polygon points="101,169 128,169 114,148" fill="#113b25"></polygon><polygon points="101,169 114,169 114,148" fill="#50715f"></polygon><polygon points="105,157 124,157 114,137" fill="#113b25"></polygon><polygon points="105,157 114,157 114,137" fill="#50715f"></polygon><polygon points="108,148 121,148 114,130" fill="#113b25"></polygon><polygon points="108,148 114,148 114,130" fill="#50715f"></polygon><polygon points="71,190 75,190 75,183 71,183" fill="#7a5a3a"></polygon><polygon points="61,185 84,185 73,167" fill="#113b25"></polygon><polygon points="61,185 73,185 73,167" fill="#50715f"></polygon><polygon points="65,175 81,175 73,158" fill="#113b25"></polygon><polygon points="65,175 73,175 73,158" fill="#50715f"></polygon></g></svg>