<svg xmlns="http://www.w3.org/2000/svg" viewBox="0 0 200 231"><defs><linearGradient id="g-d-pasture" x1="0.08" y1="0" x2="0.9" y2="1"><stop offset="0" stop-color="#6fa85c"></stop><stop offset="0.55" stop-color="#5f9e4a"></stop><stop offset="1" stop-color="#538940"></stop></linearGradient><clipPath id="plateclip"><polygon points="100,16.7 185.5,66.1 185.5,164.9 100,214.3 14.5,164.9 14.5,66.1"></polygon></clipPath></defs><polygon points="100,0 200,58 200,173 100,231 0,173 0,58" fill="#305221"></polygon><polygon points="100,4 197,60 197,171 100,227 4,171 4,60" fill="#487b36"></polygon><polygon points="100,17 186,66 186,165 100,214 15,165 15,66" fill="url(#g-d-pasture)"></polygon><g clip-path="url(#plateclip)"><path d="M16,67 Q57,43 100,18" fill="none" stroke="#2f5121" stroke-width="7" stroke-linecap="round" opacity="0.7"></path><path d="M44,172 Q96,132 155,92" fill="none" stroke="#2f5121" stroke-width="6" stroke-linecap="round" opacity="0.6"></path><path d="M63,170 q3,-9 16,-9 q14,1 13,8 q-2,9 -17,8 q-13,-1 -12,-7 z" fill="#1c4f74" opacity="0.9"></path><polygon points="75,124 77,117 88,117 93,122 90,127" fill="#f0ead9"></polygon><polygon points="89,117 96,118 95,125 89,122" fill="#6b6252"></polygon><polygon points="78,127 82,127 82,132 78,132" fill="#6b6252"></polygon><polygon points="67,127 70,118 82,118 88,125 85,131" fill="#f0ead9"></polygon><polygon points="84,118 92,120 91,128 84,125" fill="#6b6252"></polygon><polygon points="71,131 75,131 75,136 71,136" fill="#6b6252"></polygon><polygon points="68,130 70,123 80,123 85,128 82,133" fill="#f0ead9"></polygon><polygon points="81,123 88,124 87,131 81,128" fill="#6b6252"></polygon><polygon points="71,133 74,133 74,137 71,137" fill="#6b6252"></polygon><polygon points="48,137 52,128 66,128 72,135 69,142" fill="#f0ead9"></polygon><polygon points="67,128 77,129 75,139 67,135" fill="#6b6252"></polygon><polygon points="53,142 58,142 58,148 53,148" fill="#6b6252"></polygon><polygon points="93,145 95,139 104,139 108,144 106,148" fill="#f0ead9"></polygon><polygon points="105,139 110,140 109,146 105,144" fill="#6b6252"></polygon><polygon points="96,148 99,148 99,152 96,152" fill="#6b6252"></polygon><polygon points="72,161 74,155 83,155 88,160 85,164" fill="#f0ead9"></polygon><polygon points="84,155 91,156 90,162 84,160" fill="#6b6252"></polygon><polygon points="75,164 78,164 78,168 75,168" fill="#6b6252"></polygon></g></svg>