<svg xmlns="http://www.w3.org/2000/svg" viewBox="0 0 200 231"><defs><linearGradient id="g-l-desert" x1="0.08" y1="0" x2="0.9" y2="1"><stop offset="0" stop-color="#ead9b1"></stop><stop offset="0.55" stop-color="#e8d5a8"></stop><stop offset="1" stop-color="#cab992"></stop></linearGradient><clipPath id="plateclip"><polygon points="100,16.7 185.5,66.1 185.5,164.9 100,214.3 14.5,164.9 14.5,66.1"></polygon></clipPath></defs><polygon points="100,0 200,58 200,173 100,231 0,173 0,58" fill="#98835d"></polygon><polygon points="100,4 197,60 197,171 100,227 4,171 4,60" fill="#cab386"></polygon><polygon points="100,17 186,66 186,165 100,214 15,165 15,66" fill="url(#g-l-desert)"></polygon><g clip-path="url(#plateclip)"><path d="M-6,48 Q100,38 206,45 L206,69 Q100,62 -6,72 Z" fill="#a6916b" opacity="0.16"></path><path d="M-6,100 Q100,97 206,99 L206,123 Q100,121 -6,124 Z" fill="#a6916b" opacity="0.16"></path><path d="M-6,152 Q100,137 206,147 L206,171 Q100,161 -6,176 Z" fill="#a6916b" opacity="0.16"></path><path d="M-6,148 Q113,143 206,138" fill="none" stroke="#907c58" stroke-width="8" stroke-linecap="round" opacity="0.2"></path><polygon points="126,59 132,44 146,39 157,50 159,59" fill="#7d6f53"></polygon><polygon points="132,44 146,39 144,50 134,52" fill="#edddb9"></polygon><polygon points="59,62 63,53 71,50 78,57 79,62" fill="#7d6f53"></polygon><polygon points="63,53 71,50 70,57 64,58" fill="#edddb9"></polygon><polygon points="105,80 111,67 123,62 133,72 135,80" fill="#7d6f53"></polygon><polygon points="111,67 123,62 121,72 113,74" fill="#edddb9"></polygon><polygon points="78,101 85,86 98,81 109,92 111,101" fill="#7d6f53"></polygon><polygon points="85,86 98,81 96,92 86,94" fill="#edddb9"></polygon><polygon points="46,131 51,119 61,116 69,124 71,131" fill="#7d6f53"></polygon><polygon points="51,119 61,116 60,124 52,126" fill="#edddb9"></polygon></g></svg>