<svg xmlns="http://www.w3.org/2000/svg" viewBox="0 0 200 231"><defs><linearGradient id="g-l-fields" x1="0.08" y1="0" x2="0.9" y2="1"><stop offset="0" stop-color="#f0bf5c"></stop><stop offset="0.55" stop-color="#eeb84a"></stop><stop offset="1" stop-color="#cfa040"></stop></linearGradient><clipPath id="plateclip"><polygon points="100,16.7 185.5,66.1 185.5,164.9 100,214.3 14.5,164.9 14.5,66.1"></polygon></clipPath></defs><polygon points="100,0 200,58 200,173 100,231 0,173 0,58" fill="#986818"></polygon><polygon points="100,4 197,60 197,171 100,227 4,171 4,60" fill="#ce9229"></polygon><polygon points="100,17 186,66 186,165 100,214 15,165 15,66" fill="url(#g-l-fields)"></polygon><g clip-path="url(#plateclip)"><path d="M-6,38 Q100,27 206,35 L206,52 Q100,44 -6,55 Z" fill="#f0c263" opacity="0.4"></path><path d="M-6,72 Q100,61 206,69 L206,86 Q100,78 -6,89 Z" fill="#aa7c30" opacity="0.3"></path><path d="M-6,106 Q100,95 206,103 L206,120 Q100,112 -6,123 Z" fill="#f0c263" opacity="0.4"></path><path d="M-6,140 Q100,129 206,137 L206,154 Q100,146 -6,157 Z" fill="#aa7c30" opacity="0.3"></path><path d="M-6,174 Q100,163 206,171 L206,188 Q100,180 -6,191 Z" fill="#f0c263" opacity="0.4"></path><path d="M14,40 Q9,118 34,196" fill="none" stroke="#966618" stroke-width="7" stroke-linecap="round" opacity="0.6"></path><path d="M51,198 Q93,121 158,44" fill="none" stroke="#b58d4c" stroke-width="11" stroke-linecap="round" opacity="0.3"></path><polygon points="122,71 132,71 127,58" fill="#fbe9b4"></polygon><polygon points="122,71 127,71 127,58" fill="#fcefc9"></polygon><polygon points="123,68 131,68 131,69 123,69" fill="#9c6f28"></polygon><polygon points="85,103 95,103 90,90" fill="#fbe9b4"></polygon><polygon points="85,103 90,103 90,90" fill="#fcefc9"></polygon><polygon points="86,99 94,99 94,101 86,101" fill="#9c6f28"></polygon><polygon points="101,114 105,105 114,99 125,104 131,114" fill="#fbe9b4"></polygon><polygon points="105,105 114,99 115,109 106,112" fill="#fcf0cb"></polygon><polygon points="88,116 92,105 103,98 117,103 124,116" fill="#fbe9b4"></polygon><polygon points="92,105 103,98 105,110 94,113" fill="#fcf0cb"></polygon><polygon points="156,125 167,125 161,111" fill="#fbe9b4"></polygon><polygon points="156,125 161,125 161,111" fill="#fcefc9"></polygon><polygon points="157,121 166,121 166,123 157,123" fill="#9c6f28"></polygon><polygon points="148,148 159,148 153,134" fill="#fbe9b4"></polygon><polygon points="148,148 153,148 153,134" fill="#fcefc9"></polygon><polygon points="149,144 158,144 158,146 149,146" fill="#9c6f28"></polygon><polygon points="151,164 162,164 156,150" fill="#fbe9b4"></polygon><polygon points="151,164 156,164 156,150" fill="#fcefc9"></polygon><polygon points="152,160 161,160 161,162 152,162" fill="#9c6f28"></polygon><polygon points="43,168 53,168 48,155" fill="#fbe9b4"></polygon><polygon points="43,168 48,168 48,155" fill="#fcefc9"></polygon><polygon points="44,164 52,164 52,166 44,166" fill="#9c6f28"></polygon></g></svg>