<svg xmlns="http://www.w3.org/2000/svg" viewBox="0 0 200 231"><defs><linearGradient id="g-l-hills" x1="0.08" y1="0" x2="0.9" y2="1"><stop offset="0" stop-color="#d58f62"></stop><stop offset="0.55" stop-color="#d08350"></stop><stop offset="1" stop-color="#b57246"></stop></linearGradient><clipPath id="plateclip"><polygon points="100,16.7 185.5,66.1 185.5,164.9 100,214.3 14.5,164.9 14.5,66.1"></polygon></clipPath></defs><polygon points="100,0 200,58 200,173 100,231 0,173 0,58" fill="#884622"></polygon><polygon points="100,4 197,60 197,171 100,227 4,171 4,60" fill="#b36738"></polygon><polygon points="100,17 186,66 186,165 100,214 15,165 15,66" fill="url(#g-l-hills)"></polygon><g clip-path="url(#plateclip)"><path d="M26,126 q10,-32 44,-30 q38,2 40,28 q-4,32 -42,32 q-40,-2 -42,-30 z" fill="#914e28" opacity="0.5"></path><path d="M42,126 q8,-19 28,-18 q25,1 26,17 q-3,19 -27,19 q-26,-1 -27,-18 z" fill="#7b401f" opacity="0.6"></path><path d="M68,152 Q128,172 152,192" fill="none" stroke="#a56e50" stroke-width="11" stroke-linecap="round" opacity="0.32"></path><polygon points="126,182 130,166 144,159 158,166 162,182" fill="#6b3d22"></polygon><polygon points="130,166 144,159 144,175 131,177" fill="#dba17a"></polygon><polygon points="149,163 155,164 155,145 150,145" fill="#6b3d22"></polygon><polygon points="138,182 138,172 144,169 149,172 149,182" fill="#8f4a24"></polygon><polygon points="132,82 142,82 142,76 132,76" fill="#e8763f"></polygon><polygon points="143,82 153,82 153,76 143,76" fill="#f0a580"></polygon><polygon points="155,82 165,82 165,76 155,76" fill="#e8763f"></polygon><polygon points="137,75 148,75 148,68 137,68" fill="#f0a580"></polygon><polygon points="149,75 159,75 159,68 149,68" fill="#e8763f"></polygon><polygon points="143,67 153,67 153,61 143,61" fill="#e8763f"></polygon><polygon points="68,134 77,134 77,128 68,128" fill="#e8763f"></polygon><polygon points="78,134 86,134 86,128 78,128" fill="#f0a580"></polygon><polygon points="87,134 96,134 96,128 87,128" fill="#e8763f"></polygon><polygon points="73,127 82,127 82,122 73,122" fill="#f0a580"></polygon><polygon points="83,127 91,127 91,122 83,122" fill="#e8763f"></polygon><polygon points="78,121 86,121 86,115 78,115" fill="#e8763f"></polygon><polygon points="76,147 86,147 86,140 76,140" fill="#e8763f"></polygon><polygon points="88,147 98,147 98,140 88,140" fill="#f0a580"></polygon><polygon points="100,147 110,147 110,140 100,140" fill="#e8763f"></polygon><polygon points="82,139 92,139 92,132 82,132" fill="#f0a580"></polygon><polygon points="94,139 104,139 104,132 94,132" fill="#e8763f"></polygon><polygon points="88,130 98,130 98,124 88,124" fill="#e8763f"></polygon><polygon points="26,158 30,150 38,147 44,154 45,158" fill="#6f4023"></polygon><polygon points="30,150 38,147 37,154 31,155" fill="#d99c73"></polygon><polygon points="91,176 95,169 101,166 107,172 108,176" fill="#6f4023"></polygon><polygon points="95,169 101,166 100,172 95,173" fill="#d99c73"></polygon></g></svg>